<?xml version="1.0" encoding="UTF-8" standalone="no"?>
<!DOCTYPE svg PUBLIC "-//W3C//DTD SVG 1.1//EN" "http://www.w3.org/Graphics/SVG/1.1/DTD/svg11.dtd">
<svg width="203.28" height="138.12" viewBox="0.00 0.00 1694.00 1151.00" xmlns="http://www.w3.org/2000/svg" xmlns:xlink="http://www.w3.org/1999/xlink">
<g stroke-linecap="round" id="Layer_4">
<path d="M1015.63,119.14 C961.56,100.17 864.91,66.27 864.91,66.27 C864.91,66.27 61.76,354.02 61.76,354.02 C61.76,354.02 873.93,639.52 873.93,639.52 C873.93,639.52 1662.81,355.52 1662.81,355.52 C1662.81,355.52 1563.52,317.68 1517.81,300.26" fill="none" stroke="rgb(6, 0, 49)" stroke-width="30.00" stroke-opacity="1.00" stroke-linejoin="round"/>
<path d="M1242.22,171.34 C1242.22,171.34 1126.11,130.02 1126.11,130.02 C1126.11,130.02 1062.88,161.01 1062.88,161.01 C1062.88,161.01 1414.12,289.93 1414.12,289.93 C1414.12,289.93 1492.64,259.36 1492.64,259.36 C1492.64,259.36 1366.60,215.97 1366.60,215.97 C1366.60,215.97 1388.92,188.69 1352.55,172.17 C1316.19,155.64 1261.64,151.09 1242.22,171.34 Z" fill="none" stroke="rgb(6, 0, 49)" stroke-width="30.00" stroke-opacity="1.00" stroke-linejoin="round"/>
<path d="M353.55,532.00 C353.55,532.00 351.73,812.00 351.73,812.00 C351.73,812.00 520.82,794.73 869.00,974.73 C869.00,974.73 1059.91,841.09 1379.00,806.55 C1379.00,806.55 1378.09,534.73 1378.09,534.73 C1378.09,534.73 866.27,710.18 866.27,710.18 C866.27,710.18 353.55,532.00 353.55,532.00 Z" fill="none" stroke="rgb(6, 0, 49)" stroke-width="30.00" stroke-opacity="1.00" stroke-linejoin="round"/>
<path d="M187.98,406.61 C187.98,406.61 183.47,839.37 183.47,839.37 C183.47,839.37 88.05,1062.51 88.05,1062.51 C88.05,1062.51 172.95,1146.66 281.89,1060.26 C281.89,1060.26 207.51,865.67 202.25,846.88 C202.25,846.88 187.98,406.61 187.98,406.61 Z" fill="none" stroke="rgb(6, 0, 49)" stroke-width="30.00" stroke-opacity="1.00" stroke-linejoin="round"/>
<path d="M912.06,174.33 C904.03,171.23 896.02,168.14 888.66,165.30 C888.66,165.30 887.67,164.40 886.17,163.04 C886.17,163.04 885.09,160.62 884.04,158.27" fill="none" stroke="rgb(6, 0, 49)" stroke-width="17.00" stroke-opacity="1.00" stroke-linejoin="round"/>
<path d="M834.42,159.90 C811.43,168.33 777.35,180.84 777.35,180.84 C777.35,180.84 802.77,190.19 829.77,200.13" fill="none" stroke="rgb(6, 0, 49)" stroke-width="17.00" stroke-opacity="1.00" stroke-linejoin="round"/>
<path d="M879.80,218.53 C887.92,221.52 893.05,223.40 893.05,223.40 C893.05,223.40 903.99,219.68 917.66,215.03" fill="none" stroke="rgb(6, 0, 49)" stroke-width="17.00" stroke-opacity="1.00" stroke-linejoin="round"/>
<path d="M685.03,212.33 C685.03,212.33 607.35,240.84 607.35,240.84 C607.35,240.84 723.05,283.40 723.05,283.40 C723.05,283.40 800.74,256.96 800.74,256.96 C800.74,256.96 685.03,212.33 685.03,212.33 Z" fill="none" stroke="rgb(6, 0, 49)" stroke-width="17.00" stroke-opacity="1.00" stroke-linejoin="round"/>
<path d="M505.03,272.33 C505.03,272.33 427.35,300.84 427.35,300.84 C427.35,300.84 543.05,343.40 543.05,343.40 C543.05,343.40 620.74,316.96 620.74,316.96 C620.74,316.96 505.03,272.33 505.03,272.33 Z" fill="none" stroke="rgb(6, 0, 49)" stroke-width="17.00" stroke-opacity="1.00" stroke-linejoin="round"/>
<path d="M335.03,332.33 C335.03,332.33 257.35,360.84 257.35,360.84 C257.35,360.84 373.05,403.40 373.05,403.40 C373.05,403.40 450.74,376.96 450.74,376.96 C450.74,376.96 335.03,332.33 335.03,332.33 Z" fill="none" stroke="rgb(6, 0, 49)" stroke-width="17.00" stroke-opacity="1.00" stroke-linejoin="round"/>
<path d="M989.25,239.07 C989.25,239.07 1364.54,379.94 1364.54,379.94" fill="none" stroke="rgb(6, 0, 49)" stroke-width="17.00" stroke-opacity="1.00" stroke-linejoin="round"/>
<path d="M849.25,299.07 C849.25,299.07 1224.54,439.94 1224.54,439.94" fill="none" stroke="rgb(6, 0, 49)" stroke-width="17.00" stroke-opacity="1.00" stroke-linejoin="round"/>
<path d="M678.25,359.07 C678.25,359.07 1053.54,499.94 1053.54,499.94" fill="none" stroke="rgb(6, 0, 49)" stroke-width="17.00" stroke-opacity="1.00" stroke-linejoin="round"/>
<path d="M508.25,419.07 C508.25,419.07 883.54,559.94 883.54,559.94" fill="none" stroke="rgb(6, 0, 49)" stroke-width="17.00" stroke-opacity="1.00" stroke-linejoin="round"/>
<path d="M859.92,166.94 C859.92,166.94 860.12,199.59 860.12,199.59 C860.12,199.59 977.07,188.64 977.07,188.64" fill="none" stroke="rgb(6, 0, 49)" stroke-width="15.00" stroke-opacity="1.00" stroke-linejoin="round"/>
</g>
</svg>
